# xmcd CD database file generated by Grip 3.2.0
# 
# Track frame offsets:
#       150
#       19650
#       49254
# 
# Disc length: 958 seconds
# 
# Revision: 3
# Processed by: cddbd v1.5.2PL0 Copyright (c) Steve Scherf et al.
# Submitted via: Grip 3.2.0
# 
DISCID=1d03bc03
DTITLE=I've - C-LICK
DYEAR=2001
DGENRE=JPop
TTITLE0=SHIHO/FUCK ME -Radio Activity Mix-
TTITLE1=島宮えい子/verge -REVIVE Mix-
TTITLE2=MAKO/I pray to stop my cry -Nine Ball Mix-
EXTD=YEAR: 2001
EXTT0=
EXTT1=
EXTT2=
PLAYORDER=
